<?xml version="1.0" encoding="UTF-8"?>
<!DOCTYPE svg PUBLIC "-//W3C//DTD SVG 1.1//EN" "http://www.w3.org/Graphics/SVG/1.1/DTD/svg11.dtd">
<svg xmlns="http://www.w3.org/2000/svg" version="1.1" width="600px" height="360px" style="shape-rendering:geometricPrecision; text-rendering:geometricPrecision; image-rendering:optimizeQuality; fill-rule:evenodd; clip-rule:evenodd" xmlns:xlink="http://www.w3.org/1999/xlink">
<g><path style="opacity:1" fill="#fefefe" d="M -0.5,-0.5 C 199.5,-0.5 399.5,-0.5 599.5,-0.5C 599.5,119.5 599.5,239.5 599.5,359.5C 399.5,359.5 199.5,359.5 -0.5,359.5C -0.5,239.5 -0.5,119.5 -0.5,-0.5 Z"/></g>
<g><path style="opacity:1" fill="#b5cad0" d="M 253.5,60.5 C 235.5,60.5 217.5,60.5 199.5,60.5C 200.842,59.207 202.509,58.3736 204.5,58C 218.833,57.3333 233.167,57.3333 247.5,58C 249.974,58.0367 251.974,58.87 253.5,60.5 Z"/></g>
<g><path style="opacity:1" fill="#b6cbd1" d="M 335.5,60.5 C 316.833,60.5 298.167,60.5 279.5,60.5C 280.842,59.207 282.509,58.3736 284.5,58C 298.833,57.3333 313.167,57.3333 327.5,58C 330.675,57.9467 333.342,58.78 335.5,60.5 Z"/></g>
<g><path style="opacity:1" fill="#df7576" d="M 189.5,61.5 C 192.625,60.5206 195.958,60.1872 199.5,60.5C 217.5,60.5 235.5,60.5 253.5,60.5C 262.167,60.5 270.833,60.5 279.5,60.5C 298.167,60.5 316.833,60.5 335.5,60.5C 342.532,60.1697 349.532,60.503 356.5,61.5C 356.376,62.1067 356.043,62.44 355.5,62.5C 354.081,61.5489 352.415,61.2155 350.5,61.5C 296.833,61.5 243.167,61.5 189.5,61.5 Z"/></g>
<g><path style="opacity:1" fill="#df0f0b" d="M 350.5,61.5 C 352.415,61.2155 354.081,61.5489 355.5,62.5C 345.167,87.1667 334.833,111.833 324.5,136.5C 323.662,136.842 323.328,137.508 323.5,138.5C 322.833,140.167 322.167,141.833 321.5,143.5C 318.81,146.185 315.81,148.518 312.5,150.5C 309.742,149.033 310.075,148.367 313.5,148.5C 315.693,145.662 317.026,142.329 317.5,138.5C 318.376,137.749 319.376,137.249 320.5,137C 319.978,136.439 319.645,135.772 319.5,135C 329.502,110.185 339.836,85.6852 350.5,61.5 Z"/></g>
<g><path style="opacity:1" fill="#37414c" d="M 568.5,105.5 C 578.575,107.061 581.408,112.394 577,121.5C 574.204,125.134 570.704,127.801 566.5,129.5C 569.772,135.475 568.105,139.641 561.5,142C 556.898,143.122 552.232,143.622 547.5,143.5C 546.116,142.199 544.616,142.199 543,143.5C 541.2,141.683 539.034,140.516 536.5,140C 525.481,139.548 514.481,139.548 503.5,140C 523.103,134.83 542.769,131.497 562.5,130C 561.833,129.333 561.167,128.667 560.5,128C 548.039,127.265 535.705,128.265 523.5,131C 502.504,135.848 482.171,141.681 462.5,148.5C 468.538,144.155 474.538,139.821 480.5,135.5C 507.62,119.348 536.953,109.348 568.5,105.5 Z"/></g>
<g><path style="opacity:1" fill="#5c6b8a" d="M 568.5,105.5 C 536.953,109.348 507.62,119.348 480.5,135.5C 445.167,132.919 410.834,136.919 377.5,147.5C 374.044,143.596 369.711,140.929 364.5,139.5C 364.674,137.139 365.007,134.806 365.5,132.5C 395.837,119.594 427.503,111.427 460.5,108C 491.35,103.439 522.35,101.773 553.5,103C 558.706,103.437 563.706,104.27 568.5,105.5 Z"/></g>
<g><path style="opacity:1" fill="#b8cdd1" d="M 155.5,139.5 C 155.167,140.833 154.833,142.167 154.5,143.5C 151.819,140.965 148.819,138.632 145.5,136.5C 144.158,138.342 142.491,139.842 140.5,141C 128.823,143.653 124.656,139.153 128,127.5C 129.464,121.442 131.13,115.442 133,109.5C 137.115,108.256 141.281,108.256 145.5,109.5C 146.647,109.818 147.481,110.484 148,111.5C 148.167,113 148.333,114.5 148.5,116C 144.269,125.113 145.935,132.779 153.5,139C 154.094,139.464 154.761,139.631 155.5,139.5 Z"/></g>
<g><path style="opacity:1" fill="#b6cbcf" d="M 365.5,132.5 C 365.007,134.806 364.674,137.139 364.5,139.5C 358.773,143.829 352.44,144.662 345.5,142C 344.167,141.333 343.167,140.333 342.5,139C 333.274,140.78 325.274,144.946 318.5,151.5C 317.833,153.167 317.167,154.833 316.5,156.5C 314.219,156.923 312.552,156.256 311.5,154.5C 311.433,153.041 311.766,151.708 312.5,150.5C 315.81,148.518 318.81,146.185 321.5,143.5C 324.274,142.277 326.941,140.777 329.5,139C 327.527,138.505 325.527,138.338 323.5,138.5C 323.328,137.508 323.662,136.842 324.5,136.5C 330.65,138.522 336.15,137.189 341,132.5C 341.485,125.069 342.985,117.902 345.5,111C 351.891,110.242 358.224,110.576 364.5,112C 365.333,112.833 366.167,113.667 367,114.5C 367.732,120.614 367.232,126.614 365.5,132.5 Z"/></g>
<g><path style="opacity:1" fill="#939293" d="M 480.5,135.5 C 474.538,139.821 468.538,144.155 462.5,148.5C 461.29,148.932 460.29,149.599 459.5,150.5C 459.5,151.167 459.167,151.5 458.5,151.5C 458.167,151.5 457.833,151.5 457.5,151.5C 436.167,151.5 414.833,151.5 393.5,151.5C 392.5,151.5 391.5,151.5 390.5,151.5C 389.833,151.5 389.167,151.5 388.5,151.5C 387.833,151.5 387.167,151.5 386.5,151.5C 383.833,151.5 381.167,151.5 378.5,151.5C 378.567,150.041 378.234,148.708 377.5,147.5C 410.834,136.919 445.167,132.919 480.5,135.5 Z"/></g>
<g><path style="opacity:1" fill="#fb0d08" d="M 189.5,61.5 C 243.167,61.5 296.833,61.5 350.5,61.5C 339.836,85.6852 329.502,110.185 319.5,135C 319.645,135.772 319.978,136.439 320.5,137C 319.376,137.249 318.376,137.749 317.5,138.5C 317.026,142.329 315.693,145.662 313.5,148.5C 310.075,148.367 309.742,149.033 312.5,150.5C 310.396,150.799 308.396,150.466 306.5,149.5C 307.127,148.583 307.461,147.583 307.5,146.5C 306.129,145.213 304.295,144.547 302,144.5C 300.167,144.667 298.333,144.833 296.5,145C 294.461,147.374 292.128,149.374 289.5,151C 246.126,151.355 202.792,151.688 159.5,152C 172.567,145.727 172.234,143.394 158.5,145C 156.554,147.118 154.554,148.284 152.5,148.5C 153.167,146.833 153.833,145.167 154.5,143.5C 154.833,142.167 155.167,140.833 155.5,139.5C 166.833,113.5 178.167,87.5 189.5,61.5 Z"/></g>
<g><path style="opacity:1" fill="#cb1217" d="M 311.5,135.5 C 311.833,135.5 312.167,135.5 312.5,135.5C 288.009,136.833 263.176,137.5 238,137.5C 212.998,137.5 188.164,137.167 163.5,136.5C 164.833,136.5 166.167,136.5 167.5,136.5C 215.67,136.832 263.67,136.499 311.5,135.5 Z"/></g>
<g><path style="opacity:1" fill="#3c5558" d="M 311.5,133.5 C 311.5,134.167 311.5,134.833 311.5,135.5C 263.67,136.499 215.67,136.832 167.5,136.5C 167.5,135.833 167.833,135.5 168.5,135.5C 198.833,135.5 229.167,135.5 259.5,135.5C 260.5,135.5 261.5,135.5 262.5,135.5C 272.167,135.5 281.833,135.5 291.5,135.5C 294.5,135.5 297.5,135.5 300.5,135.5C 304.502,135.964 308.169,135.298 311.5,133.5 Z"/></g>
<g><path style="opacity:1" fill="#4a4047" d="M 312.5,135.5 C 312.167,135.5 311.833,135.5 311.5,135.5C 311.5,134.833 311.5,134.167 311.5,133.5C 320.306,111.747 329.306,90.0807 338.5,68.5C 291.931,67.1701 245.264,67.1701 198.5,68.5C 196.665,69.1223 195.498,70.4556 195,72.5C 186.154,93.5214 177.321,114.521 168.5,135.5C 167.833,135.5 167.5,135.833 167.5,136.5C 166.167,136.5 164.833,136.5 163.5,136.5C 173.101,112.802 183.101,89.3024 193.5,66C 242.837,65.1667 292.17,65.3334 341.5,66.5C 331.632,89.4427 321.966,112.443 312.5,135.5 Z"/></g>
<g><path style="opacity:1" fill="#d0fcdd" d="M 198.5,68.5 C 198.611,69.1174 198.944,69.6174 199.5,70C 215.798,71.3691 232.131,71.8691 248.5,71.5C 248.938,71.4346 249.272,71.6012 249.5,72C 246.23,74.3756 245.064,77.5423 246,81.5C 246.903,82.7014 248.069,83.5348 249.5,84C 257.5,84.6667 265.5,84.6667 273.5,84C 276.823,80.1151 277.157,76.1151 274.5,72C 269.5,71.3333 264.5,71.3333 259.5,72C 258.88,74.4728 258.214,76.9728 257.5,79.5C 256.551,76.8742 256.551,74.2075 257.5,71.5C 254.941,71.8016 252.607,71.4682 250.5,70.5C 250.611,69.8826 250.944,69.3826 251.5,69C 259.853,68.1683 268.187,68.3349 276.5,69.5C 278.575,71.8302 281.242,72.9968 284.5,73C 299.833,73.6667 315.167,73.6667 330.5,73C 333.364,71.5874 336.03,70.0874 338.5,68.5C 329.306,90.0807 320.306,111.747 311.5,133.5C 308.169,135.298 304.502,135.964 300.5,135.5C 290.347,124.762 278.014,120.929 263.5,124C 260.328,127.181 258.994,131.014 259.5,135.5C 229.167,135.5 198.833,135.5 168.5,135.5C 177.321,114.521 186.154,93.5214 195,72.5C 195.498,70.4556 196.665,69.1223 198.5,68.5 Z"/></g>
<g><path style="opacity:1" fill="#5d6d89" d="M 300.5,135.5 C 297.5,135.5 294.5,135.5 291.5,135.5C 284.859,127.505 276.525,124.672 266.5,127C 263.679,129.141 262.346,131.975 262.5,135.5C 261.5,135.5 260.5,135.5 259.5,135.5C 258.994,131.014 260.328,127.181 263.5,124C 278.014,120.929 290.347,124.762 300.5,135.5 Z"/></g>
<g><path style="opacity:1" fill="#d0f8dd" d="M 291.5,135.5 C 281.833,135.5 272.167,135.5 262.5,135.5C 262.346,131.975 263.679,129.141 266.5,127C 276.525,124.672 284.859,127.505 291.5,135.5 Z"/></g>
<g><path style="opacity:1" fill="#b4cacd" d="M 248.5,71.5 C 248.842,70.6618 249.508,70.3284 250.5,70.5C 252.607,71.4682 254.941,71.8016 257.5,71.5C 256.551,74.2075 256.551,76.8742 257.5,79.5C 258.214,76.9728 258.88,74.4728 259.5,72C 264.5,71.3333 269.5,71.3333 274.5,72C 277.157,76.1151 276.823,80.1151 273.5,84C 265.5,84.6667 257.5,84.6667 249.5,84C 248.069,83.5348 246.903,82.7014 246,81.5C 245.064,77.5423 246.23,74.3756 249.5,72C 249.272,71.6012 248.938,71.4346 248.5,71.5 Z"/></g>
<g><path style="opacity:1" fill="#5a6783" d="M 338.5,68.5 C 336.03,70.0874 333.364,71.5874 330.5,73C 315.167,73.6667 299.833,73.6667 284.5,73C 281.242,72.9968 278.575,71.8302 276.5,69.5C 268.187,68.3349 259.853,68.1683 251.5,69C 250.944,69.3826 250.611,69.8826 250.5,70.5C 249.508,70.3284 248.842,70.6618 248.5,71.5C 232.131,71.8691 215.798,71.3691 199.5,70C 198.944,69.6174 198.611,69.1174 198.5,68.5C 245.264,67.1701 291.931,67.1701 338.5,68.5 Z"/></g>
<g><path style="opacity:1" fill="#140a07" d="M 364.5,139.5 C 369.711,140.929 374.044,143.596 377.5,147.5C 378.234,148.708 378.567,150.041 378.5,151.5C 358.5,151.5 338.5,151.5 318.5,151.5C 325.274,144.946 333.274,140.78 342.5,139C 343.167,140.333 344.167,141.333 345.5,142C 352.44,144.662 358.773,143.829 364.5,139.5 Z"/></g>
<g><path style="opacity:1" fill="#131011" d="M 323.5,138.5 C 325.527,138.338 327.527,138.505 329.5,139C 326.941,140.777 324.274,142.277 321.5,143.5C 322.167,141.833 322.833,140.167 323.5,138.5 Z"/></g>
<g><path style="opacity:1" fill="#596884" d="M 547.5,143.5 C 546.209,143.263 545.209,143.596 544.5,144.5C 533.534,143.401 522.534,143.235 511.5,144C 494.135,146.171 476.801,148.337 459.5,150.5C 460.29,149.599 461.29,148.932 462.5,148.5C 482.171,141.681 502.504,135.848 523.5,131C 535.705,128.265 548.039,127.265 560.5,128C 561.167,128.667 561.833,129.333 562.5,130C 542.769,131.497 523.103,134.83 503.5,140C 514.481,139.548 525.481,139.548 536.5,140C 539.034,140.516 541.2,141.683 543,143.5C 544.616,142.199 546.116,142.199 547.5,143.5 Z"/></g>
<g><path style="opacity:1" fill="#3a414c" d="M 544.5,144.5 C 550.101,148.734 549.768,152.068 543.5,154.5C 515.812,153.921 488.145,153.255 460.5,152.5C 459.833,154.833 459.167,157.167 458.5,159.5C 458.5,156.833 458.5,154.167 458.5,151.5C 459.167,151.5 459.5,151.167 459.5,150.5C 476.801,148.337 494.135,146.171 511.5,144C 522.534,143.235 533.534,143.401 544.5,144.5 Z"/></g>
<g><path style="opacity:1" fill="#fba29e" d="M 307.5,146.5 C 304.649,148.505 301.649,150.338 298.5,152C 301.133,151.747 303.8,151.747 306.5,152C 302.525,152.614 298.859,153.781 295.5,155.5C 294.234,154.91 292.901,154.41 291.5,154C 242.834,153.5 194.168,153.333 145.5,153.5C 147.102,151.926 149.102,151.259 151.5,151.5C 151.263,150.209 151.596,149.209 152.5,148.5C 154.554,148.284 156.554,147.118 158.5,145C 172.234,143.394 172.567,145.727 159.5,152C 202.792,151.688 246.126,151.355 289.5,151C 292.128,149.374 294.461,147.374 296.5,145C 298.333,144.833 300.167,144.667 302,144.5C 304.295,144.547 306.129,145.213 307.5,146.5 Z"/></g>
<g><path style="opacity:1" fill="#85535d" d="M 145.5,153.5 C 194.168,153.333 242.834,153.5 291.5,154C 292.901,154.41 294.234,154.91 295.5,155.5C 297.226,157.82 297.893,160.487 297.5,163.5C 296.167,163.5 294.833,163.5 293.5,163.5C 293.5,163.167 293.5,162.833 293.5,162.5C 295.84,161.428 296.173,159.761 294.5,157.5C 292.49,155.829 290.157,155.162 287.5,155.5C 238.664,155.832 189.997,155.499 141.5,154.5C 142.568,153.566 143.901,153.232 145.5,153.5 Z"/></g>
<g><path style="opacity:1" fill="#794449" d="M 390.5,151.5 C 391.5,151.5 392.5,151.5 393.5,151.5C 393.5,153.167 393.5,154.833 393.5,156.5C 392.5,156.5 391.5,156.5 390.5,156.5C 390.5,154.833 390.5,153.167 390.5,151.5 Z"/></g>
<g><path style="opacity:1" fill="#df0907" d="M 287.5,155.5 C 290.157,155.162 292.49,155.829 294.5,157.5C 296.173,159.761 295.84,161.428 293.5,162.5C 262.959,169.469 232.293,175.802 201.5,181.5C 198.681,181.131 195.848,180.798 193,180.5C 190.179,180.408 187.679,181.074 185.5,182.5C 182.3,183.044 179.967,184.71 178.5,187.5C 168.246,189.821 157.912,191.821 147.5,193.5C 147.167,193.5 146.833,193.5 146.5,193.5C 146.298,191.05 146.631,188.717 147.5,186.5C 194.022,175.662 240.689,165.328 287.5,155.5 Z"/></g>
<g><path style="opacity:1" fill="#de4a30" d="M 388.5,151.5 C 389.167,151.5 389.833,151.5 390.5,151.5C 390.5,153.167 390.5,154.833 390.5,156.5C 389.206,160.934 389.206,165.267 390.5,169.5C 390.5,169.833 390.5,170.167 390.5,170.5C 389.833,172.167 389.167,173.833 388.5,175.5C 388.5,167.5 388.5,159.5 388.5,151.5 Z"/></g>
<g><path style="opacity:1" fill="#fa9c98" d="M 390.5,156.5 C 391.5,156.5 392.5,156.5 393.5,156.5C 394.805,158.397 395.471,160.731 395.5,163.5C 395.471,166.269 394.805,168.603 393.5,170.5C 392.391,170.443 391.391,170.11 390.5,169.5C 389.206,165.267 389.206,160.934 390.5,156.5 Z"/></g>
<g><path style="opacity:1" fill="#fbd173" d="M 546.5,159.5 C 555.962,160.95 562.962,165.95 567.5,174.5C 563.833,174.5 560.167,174.5 556.5,174.5C 552.475,170.108 549.142,165.108 546.5,159.5 Z"/></g>
<g><path style="opacity:1" fill="#fb9e99" d="M 311.5,154.5 C 312.552,156.256 314.219,156.923 316.5,156.5C 316.774,161.263 316.441,165.93 315.5,170.5C 314.609,169.89 313.609,169.557 312.5,169.5C 311.778,169.082 311.278,168.416 311,167.5C 310.186,162.98 310.353,158.646 311.5,154.5 Z"/></g>
<g><path style="opacity:1" fill="#983d3a" d="M 457.5,151.5 C 457.833,151.5 458.167,151.5 458.5,151.5C 458.5,154.167 458.5,156.833 458.5,159.5C 458.176,166.354 458.509,173.021 459.5,179.5C 459.768,181.099 459.434,182.432 458.5,183.5C 458.649,182.448 458.483,181.448 458,180.5C 457.768,181.737 457.268,182.737 456.5,183.5C 457.404,172.865 457.737,162.198 457.5,151.5 Z"/></g>
<g><path style="opacity:1" fill="#69414c" d="M 460.5,152.5 C 460.804,161.584 460.471,170.584 459.5,179.5C 458.509,173.021 458.176,166.354 458.5,159.5C 459.167,157.167 459.833,154.833 460.5,152.5 Z"/></g>
<g><path style="opacity:1" fill="#e00702" d="M 307.5,146.5 C 307.461,147.583 307.127,148.583 306.5,149.5C 308.396,150.466 310.396,150.799 312.5,150.5C 311.766,151.708 311.433,153.041 311.5,154.5C 310.353,158.646 310.186,162.98 311,167.5C 311.278,168.416 311.778,169.082 312.5,169.5C 312.5,186.833 312.5,204.167 312.5,221.5C 311.883,221.611 311.383,221.944 311,222.5C 310.088,226.806 310.588,230.806 312.5,234.5C 312.279,237.279 312.612,239.946 313.5,242.5C 312.506,252.987 312.172,263.654 312.5,274.5C 310.167,274.5 307.833,274.5 305.5,274.5C 301.5,274.5 297.5,274.5 293.5,274.5C 294.641,264.243 294.808,253.91 294,243.5C 287.94,226.648 281.107,210.148 273.5,194C 259.171,193.5 244.837,193.333 230.5,193.5C 230.158,192.662 229.492,192.328 228.5,192.5C 226.5,191.167 224.5,189.833 222.5,188.5C 249.495,184.635 276.495,180.968 303.5,177.5C 303.5,175.833 303.5,174.167 303.5,172.5C 272.734,176.012 242.068,180.012 211.5,184.5C 210.041,184.567 208.708,184.234 207.5,183.5C 236.14,176.705 264.807,170.039 293.5,163.5C 294.833,163.5 296.167,163.5 297.5,163.5C 297.893,160.487 297.226,157.82 295.5,155.5C 298.859,153.781 302.525,152.614 306.5,152C 303.8,151.747 301.133,151.747 298.5,152C 301.649,150.338 304.649,148.505 307.5,146.5 Z"/></g>
<g><path style="opacity:1" fill="#fc3102" d="M 318.5,151.5 C 338.5,151.5 358.5,151.5 378.5,151.5C 381.167,151.5 383.833,151.5 386.5,151.5C 386.666,160.506 386.5,169.506 386,178.5C 383.494,187.354 379.827,195.688 375,203.5C 368.095,214.301 361.429,225.301 355,236.5C 352.531,238.652 349.698,240.152 346.5,241C 335.992,241.825 325.658,241.659 315.5,240.5C 316.55,234.007 316.55,227.674 315.5,221.5C 315.5,204.5 315.5,187.5 315.5,170.5C 316.441,165.93 316.774,161.263 316.5,156.5C 317.167,154.833 317.833,153.167 318.5,151.5 Z"/></g>
<g><path style="opacity:1" fill="#b6c5c7" d="M 376.5,167.5 C 378.288,167.215 379.955,167.548 381.5,168.5C 382.393,171.084 382.726,173.751 382.5,176.5C 374.839,177.692 367.172,177.692 359.5,176.5C 358.253,174.958 358.253,173.458 359.5,172C 365.569,171.609 371.235,170.109 376.5,167.5 Z"/></g>
<g><path style="opacity:1" fill="#7d3a42" d="M 293.5,162.5 C 293.5,162.833 293.5,163.167 293.5,163.5C 264.807,170.039 236.14,176.705 207.5,183.5C 205.302,183.125 203.302,182.458 201.5,181.5C 232.293,175.802 262.959,169.469 293.5,162.5 Z"/></g>
<g><path style="opacity:1" fill="#fc968b" d="M 320.5,172.5 C 331.167,172.5 341.833,172.5 352.5,172.5C 352.5,174.5 352.5,176.5 352.5,178.5C 341.833,178.5 331.167,178.5 320.5,178.5C 320.5,176.5 320.5,174.5 320.5,172.5 Z"/></g>
<g><path style="opacity:1" fill="#fb9b97" d="M 141.5,154.5 C 189.997,155.499 238.664,155.832 287.5,155.5C 240.689,165.328 194.022,175.662 147.5,186.5C 115.831,186.673 84.1646,187.006 52.5,187.5C 53.3065,186.272 54.3065,185.272 55.5,184.5C 84.3365,175.109 113.003,165.109 141.5,154.5 Z"/></g>
<g><path style="opacity:1" fill="#f9221d" d="M 189.5,167.5 C 189.5,167.833 189.5,168.167 189.5,168.5C 168.875,174 148.042,179.334 127,184.5C 126.167,184.167 125.333,183.833 124.5,183.5C 145.879,177.072 167.546,171.739 189.5,167.5 Z"/></g>
<g><path style="opacity:1" fill="#fa1d18" d="M 139.5,167.5 C 140.167,167.5 140.5,167.833 140.5,168.5C 124.921,173.607 109.254,178.773 93.5,184C 91.4213,184.808 89.4213,184.641 87.5,183.5C 104.64,177.548 121.973,172.215 139.5,167.5 Z"/></g>
<g><path style="opacity:1" fill="#45434b" d="M 195.5,165.5 C 195.5,165.833 195.5,166.167 195.5,166.5C 194.082,168.308 192.082,168.975 189.5,168.5C 189.5,168.167 189.5,167.833 189.5,167.5C 190.533,164.401 192.533,163.734 195.5,165.5 Z"/></g>
<g><path style="opacity:1" fill="#fa241c" d="M 195.5,166.5 C 195.5,166.167 195.5,165.833 195.5,165.5C 207.075,161.981 218.909,158.981 231,156.5C 231.833,156.833 232.667,157.167 233.5,157.5C 221.024,161.262 208.358,164.262 195.5,166.5 Z"/></g>
<g><path style="opacity:1" fill="#fb231e" d="M 199.5,156.5 C 201.604,156.201 203.604,156.534 205.5,157.5C 174.184,166.329 142.851,175.163 111.5,184C 109.5,184.667 107.5,184.667 105.5,184C 136.903,174.761 168.236,165.594 199.5,156.5 Z"/></g>
<g><path style="opacity:1" fill="#4f4650" d="M 146.5,165.5 C 146.5,165.833 146.5,166.167 146.5,166.5C 145.01,168.28 143.01,168.946 140.5,168.5C 140.5,167.833 140.167,167.5 139.5,167.5C 139.414,166.504 139.748,165.671 140.5,165C 142.598,164.322 144.598,164.489 146.5,165.5 Z"/></g>
<g><path style="opacity:1" fill="#fa211c" d="M 143.5,156.5 C 149.932,156.873 149.932,158.039 143.5,160C 120.311,168.301 96.9772,176.301 73.5,184C 71.8333,184.667 70.1667,184.667 68.5,184C 93.4114,174.364 118.411,165.197 143.5,156.5 Z"/></g>
<g><path style="opacity:1" fill="#fa221c" d="M 257.5,156.5 C 258.978,156.238 260.311,156.571 261.5,157.5C 222.782,166.812 183.949,175.812 145,184.5C 144.5,184.167 144,183.833 143.5,183.5C 146.678,182.019 150.012,180.852 153.5,180C 188.336,172.336 223.002,164.503 257.5,156.5 Z"/></g>
<g><path style="opacity:1" fill="#fa1c16" d="M 146.5,166.5 C 146.5,166.167 146.5,165.833 146.5,165.5C 155.473,162.232 164.64,159.232 174,156.5C 174.833,156.833 175.667,157.167 176.5,157.5C 166.673,161.123 156.673,164.123 146.5,166.5 Z"/></g>
<g><path style="opacity:1" fill="#fb7304" d="M 222.5,188.5 C 218.617,187.541 214.95,186.208 211.5,184.5C 242.068,180.012 272.734,176.012 303.5,172.5C 303.5,174.167 303.5,175.833 303.5,177.5C 276.495,180.968 249.495,184.635 222.5,188.5 Z"/></g>
<g><path style="opacity:1" fill="#803f46" d="M 312.5,169.5 C 313.609,169.557 314.609,169.89 315.5,170.5C 315.5,187.5 315.5,204.5 315.5,221.5C 314.5,221.5 313.5,221.5 312.5,221.5C 312.5,204.167 312.5,186.833 312.5,169.5 Z"/></g>
<g><path style="opacity:1" fill="#e01009" d="M 556.5,174.5 C 560.167,174.5 563.833,174.5 567.5,174.5C 572.934,182.593 573.934,191.26 570.5,200.5C 566.3,191.62 561.634,182.953 556.5,174.5 Z"/></g>
<g><path style="opacity:1" fill="#fd3203" d="M 147.5,186.5 C 146.631,188.717 146.298,191.05 146.5,193.5C 114.996,193.168 83.6622,193.502 52.5,194.5C 52.1667,194.5 51.8333,194.5 51.5,194.5C 51.1984,191.941 51.5318,189.607 52.5,187.5C 84.1646,187.006 115.831,186.673 147.5,186.5 Z"/></g>
<g><path style="opacity:1" fill="#f9cd76" d="M 185.5,182.5 C 190.232,182.378 194.898,182.878 199.5,184C 205.252,186.474 210.919,189.14 216.5,192C 220.486,192.499 224.486,192.666 228.5,192.5C 229.492,192.328 230.158,192.662 230.5,193.5C 222.833,193.5 215.167,193.5 207.5,193.5C 197.75,193.806 188.084,193.473 178.5,192.5C 178.5,191.5 178.5,190.5 178.5,189.5C 178.5,188.833 178.5,188.167 178.5,187.5C 179.967,184.71 182.3,183.044 185.5,182.5 Z"/></g>
<g><path style="opacity:1" fill="#b7c7c8" d="M 201.5,181.5 C 203.302,182.458 205.302,183.125 207.5,183.5C 208.708,184.234 210.041,184.567 211.5,184.5C 214.95,186.208 218.617,187.541 222.5,188.5C 224.5,189.833 226.5,191.167 228.5,192.5C 224.486,192.666 220.486,192.499 216.5,192C 210.919,189.14 205.252,186.474 199.5,184C 194.898,182.878 190.232,182.378 185.5,182.5C 187.679,181.074 190.179,180.408 193,180.5C 195.848,180.798 198.681,181.131 201.5,181.5 Z"/></g>
<g><path style="opacity:1" fill="#843f40" d="M 390.5,169.5 C 391.391,170.11 392.391,170.443 393.5,170.5C 393.5,187.5 393.5,204.5 393.5,221.5C 392.5,221.5 391.5,221.5 390.5,221.5C 390.5,204.5 390.5,187.5 390.5,170.5C 390.5,170.167 390.5,169.833 390.5,169.5 Z"/></g>
<g><path style="opacity:1" fill="#fbd478" d="M 55.5,184.5 C 54.3065,185.272 53.3065,186.272 52.5,187.5C 51.5318,189.607 51.1984,191.941 51.5,194.5C 47.5,194.5 43.5,194.5 39.5,194.5C 39.379,190.69 40.7124,187.523 43.5,185C 47.4862,184.501 51.4862,184.334 55.5,184.5 Z"/></g>
<g><path style="opacity:1" fill="#b43a29" d="M 146.5,193.5 C 146.833,193.5 147.167,193.5 147.5,193.5C 116.167,194.167 84.8333,194.833 53.5,195.5C 53.1667,195.5 52.8333,195.5 52.5,195.5C 52.5,195.167 52.5,194.833 52.5,194.5C 83.6622,193.502 114.996,193.168 146.5,193.5 Z"/></g>
<g><path style="opacity:1" fill="#6f4049" d="M 178.5,187.5 C 178.5,188.167 178.5,188.833 178.5,189.5C 168.117,191.243 157.784,193.243 147.5,195.5C 116.167,195.5 84.8333,195.5 53.5,195.5C 84.8333,194.833 116.167,194.167 147.5,193.5C 157.912,191.821 168.246,189.821 178.5,187.5 Z"/></g>
<g><path style="opacity:1" fill="#fb9e9b" d="M 178.5,192.5 C 188.084,193.473 197.75,193.806 207.5,193.5C 205.73,195.113 204.564,197.113 204,199.5C 202.409,217.829 200.909,236.162 199.5,254.5C 195.154,254.334 190.821,254.501 186.5,255C 185.934,255.995 185.267,256.828 184.5,257.5C 176.167,257.5 167.833,257.5 159.5,257.5C 159.365,237.759 160.531,218.092 163,198.5C 163.574,196.508 164.741,195.008 166.5,194C 170.688,193.824 174.688,193.324 178.5,192.5 Z"/></g>
<g><path style="opacity:1" fill="#fb7a04" d="M 207.5,193.5 C 215.167,193.5 222.833,193.5 230.5,193.5C 244.837,193.333 259.171,193.5 273.5,194C 281.107,210.148 287.94,226.648 294,243.5C 294.808,253.91 294.641,264.243 293.5,274.5C 289.09,274.713 285.757,273.046 283.5,269.5C 283.666,261.493 283.5,253.493 283,245.5C 276.73,229.972 270.23,214.638 263.5,199.5C 254.014,198.506 244.348,198.173 234.5,198.5C 234.5,199.5 234.5,200.5 234.5,201.5C 232.436,206.027 230.769,210.693 229.5,215.5C 223.942,227.484 218.942,239.817 214.5,252.5C 209.807,254.36 204.807,255.026 199.5,254.5C 200.909,236.162 202.409,217.829 204,199.5C 204.564,197.113 205.73,195.113 207.5,193.5 Z"/></g>
<g><path style="opacity:1" fill="#df0906" d="M 178.5,189.5 C 178.5,190.5 178.5,191.5 178.5,192.5C 174.688,193.324 170.688,193.824 166.5,194C 164.741,195.008 163.574,196.508 163,198.5C 160.531,218.092 159.365,237.759 159.5,257.5C 158.5,257.5 157.5,257.5 156.5,257.5C 153.501,236.844 150.501,216.177 147.5,195.5C 157.784,193.243 168.117,191.243 178.5,189.5 Z"/></g>
<g><path style="opacity:1" fill="#b45502" d="M 263.5,199.5 C 253.572,198.9 243.905,199.567 234.5,201.5C 234.5,200.5 234.5,199.5 234.5,198.5C 244.348,198.173 254.014,198.506 263.5,199.5 Z"/></g>
<g><path style="opacity:1" fill="#070403" d="M 263.5,199.5 C 270.23,214.638 276.73,229.972 283,245.5C 283.5,253.493 283.666,261.493 283.5,269.5C 282.5,269.5 281.5,269.5 280.5,269.5C 281.654,274.285 282.987,278.952 284.5,283.5C 282.097,283.552 279.764,283.219 277.5,282.5C 279.848,261.225 275.015,241.892 263,224.5C 258.677,219.859 253.511,216.359 247.5,214C 241.4,213.377 235.4,213.877 229.5,215.5C 230.769,210.693 232.436,206.027 234.5,201.5C 243.905,199.567 253.572,198.9 263.5,199.5 Z"/></g>
<g><path style="opacity:1" fill="#060505" d="M 530.5,274.5 C 531.837,278.845 533.171,283.178 534.5,287.5C 528.781,286.32 523.114,284.987 517.5,283.5C 519.5,262.502 515.333,242.835 505,224.5C 496.478,213.318 485.312,208.318 471.5,209.5C 472.149,206.055 473.482,202.889 475.5,200C 485.494,199.5 495.494,199.334 505.5,199.5C 511.179,214.368 517.345,229.035 524,243.5C 524.333,253.5 524.667,263.5 525,273.5C 526.699,274.406 528.533,274.739 530.5,274.5 Z"/></g>
<g><path style="opacity:1" fill="#fd9a95" d="M 320.5,208.5 C 333.504,208.333 346.504,208.5 359.5,209C 360.833,210.667 360.833,212.333 359.5,214C 346.504,214.5 333.504,214.667 320.5,214.5C 320.5,212.5 320.5,210.5 320.5,208.5 Z"/></g>
<g><path style="opacity:1" fill="#fc7205" d="M 295.5,208.5 C 298.167,208.5 300.833,208.5 303.5,208.5C 303.5,210.5 303.5,212.5 303.5,214.5C 298.833,214.5 294.167,214.5 289.5,214.5C 289.343,213.127 289.51,211.793 290,210.5C 291.948,209.891 293.782,209.224 295.5,208.5 Z"/></g>
<g><path style="opacity:1" fill="#fc3307" d="M 52.5,195.5 C 52.8333,195.5 53.1667,195.5 53.5,195.5C 84.8333,195.5 116.167,195.5 147.5,195.5C 150.501,216.177 153.501,236.844 156.5,257.5C 124.5,257.5 92.5,257.5 60.5,257.5C 60.7536,252.031 60.0869,246.697 58.5,241.5C 57.2676,228.773 55.6009,216.106 53.5,203.5C 53.1667,200.833 52.8333,198.167 52.5,195.5 Z"/></g>
<g><path style="opacity:1" fill="#f79f9b" d="M 103.5,202.5 C 105.067,203.681 105.901,205.347 106,207.5C 106.81,211.358 106.643,215.024 105.5,218.5C 105.635,213.05 104.969,207.716 103.5,202.5 Z"/></g>
<g><path style="opacity:1" fill="#cad8d9" d="M 53.5,203.5 C 55.6009,216.106 57.2676,228.773 58.5,241.5C 54.7631,250.373 48.0964,253.873 38.5,252C 37.944,251.617 37.6107,251.117 37.5,250.5C 40.1667,250.5 42.8333,250.5 45.5,250.5C 45.5,249.5 45.5,248.5 45.5,247.5C 46.5,247.5 47.5,247.5 48.5,247.5C 50.2948,242.278 51.7948,236.945 53,231.5C 54.1123,223.333 52.6123,215.666 48.5,208.5C 45.0602,206.777 41.3935,206.11 37.5,206.5C 38.0906,205.849 38.7573,205.182 39.5,204.5C 44.1196,203.507 48.7863,203.173 53.5,203.5 Z"/></g>
<g><path style="opacity:1" fill="#bdc4c7" d="M 103.5,202.5 C 104.969,207.716 105.635,213.05 105.5,218.5C 105.5,219.167 105.167,219.5 104.5,219.5C 103.778,219.918 103.278,220.584 103,221.5C 101.989,220.663 100.822,220.33 99.5,220.5C 91.9162,214.495 90.5829,207.328 95.5,199C 99.3766,197.784 102.043,198.951 103.5,202.5 Z"/></g>
<g><path style="opacity:1" fill="#fb9f9b" d="M 95.5,202.5 C 99.224,202.05 101.391,203.717 102,207.5C 102.777,210.429 102.61,213.263 101.5,216C 98.1961,217.042 96.0295,215.875 95,212.5C 94.3412,209.112 94.5078,205.779 95.5,202.5 Z"/></g>
<g><path style="opacity:1" fill="#b6c7cc" d="M 183.5,201.5 C 191.357,200.678 196.523,204.011 199,211.5C 201.881,225.276 199.048,237.609 190.5,248.5C 188.513,250.327 186.179,251.327 183.5,251.5C 193.817,240.033 196.317,226.366 191,210.5C 189.358,206.7 186.858,203.7 183.5,201.5 Z"/></g>
<g><path style="opacity:1" fill="#fd3102" d="M 393.5,151.5 C 414.833,151.5 436.167,151.5 457.5,151.5C 457.737,162.198 457.404,172.865 456.5,183.5C 453.968,189.915 451.134,196.248 448,202.5C 441.746,213.34 435.746,224.34 430,235.5C 427.937,237.734 425.771,239.734 423.5,241.5C 413.5,241.5 403.5,241.5 393.5,241.5C 393.5,239.167 393.5,236.833 393.5,234.5C 394.8,232.777 395.467,230.61 395.5,228C 395.467,225.39 394.8,223.223 393.5,221.5C 393.5,204.5 393.5,187.5 393.5,170.5C 394.805,168.603 395.471,166.269 395.5,163.5C 395.471,160.731 394.805,158.397 393.5,156.5C 393.5,154.833 393.5,153.167 393.5,151.5 Z"/></g>
<g><path style="opacity:1" fill="#b7c3c6" d="M 447.5,167.5 C 451.819,166.854 453.819,168.687 453.5,173C 453.325,174.658 452.658,175.991 451.5,177C 444.833,177.667 438.167,177.667 431.5,177C 429.473,175.604 429.14,173.938 430.5,172C 436.549,171.432 442.216,169.932 447.5,167.5 Z"/></g>
<g><path style="opacity:1" fill="#fba09e" d="M 39.5,194.5 C 43.5,194.5 47.5,194.5 51.5,194.5C 51.8333,194.5 52.1667,194.5 52.5,194.5C 52.5,194.833 52.5,195.167 52.5,195.5C 52.8333,198.167 53.1667,200.833 53.5,203.5C 48.7863,203.173 44.1196,203.507 39.5,204.5C 38.7573,205.182 38.0906,205.849 37.5,206.5C 33.6541,209.114 31.1541,212.781 30,217.5C 27.7283,227.03 28.395,236.363 32,245.5C 33.0545,248.056 34.8878,249.723 37.5,250.5C 37.6107,251.117 37.944,251.617 38.5,252C 48.0964,253.873 54.7631,250.373 58.5,241.5C 60.0869,246.697 60.7536,252.031 60.5,257.5C 48.5,257.5 36.5,257.5 24.5,257.5C 24.5,256.5 24.5,255.5 24.5,254.5C 24.3923,236.125 25.2256,217.792 27,199.5C 28.1667,198.333 29.3333,197.167 30.5,196C 33.6946,195.819 36.6946,195.319 39.5,194.5 Z"/></g>
<g><path style="opacity:1" fill="#fc9b97" d="M 79.5,201.5 C 81.1439,201.286 82.6439,201.62 84,202.5C 86.3645,219.819 88.5312,237.152 90.5,254.5C 88.8561,254.714 87.3561,254.38 86,253.5C 83.5035,236.194 81.3368,218.861 79.5,201.5 Z"/></g>
<g><path style="opacity:1" fill="#f59691" d="M 312.5,221.5 C 313.5,221.5 314.5,221.5 315.5,221.5C 316.55,227.674 316.55,234.007 315.5,240.5C 315.06,238.156 314.06,236.156 312.5,234.5C 310.588,230.806 310.088,226.806 311,222.5C 311.383,221.944 311.883,221.611 312.5,221.5 Z"/></g>
<g><path style="opacity:1" fill="#fc9c97" d="M 61.5,201.5 C 63.1439,201.286 64.6439,201.62 66,202.5C 68.2345,219.502 70.4011,236.502 72.5,253.5C 70.8333,253.5 69.1667,253.5 67.5,253.5C 65.1092,236.212 63.1092,218.879 61.5,201.5 Z"/></g>
<g><path style="opacity:1" fill="#fb9d9a" d="M 533.5,243.5 C 533.5,253.5 533.5,263.5 533.5,273.5C 532.609,274.11 531.609,274.443 530.5,274.5C 528.533,274.739 526.699,274.406 525,273.5C 524.667,263.5 524.333,253.5 524,243.5C 517.345,229.035 511.179,214.368 505.5,199.5C 495.494,199.334 485.494,199.5 475.5,200C 473.482,202.889 472.149,206.055 471.5,209.5C 466.365,220.44 461.199,231.44 456,242.5C 455.667,252.833 455.333,263.167 455,273.5C 452.281,274.444 449.448,274.777 446.5,274.5C 444.167,274.5 441.833,274.5 439.5,274.5C 438.378,263.546 438.212,252.546 439,241.5C 446.334,225.67 453.501,209.837 460.5,194C 477.5,193.333 494.5,193.333 511.5,194C 519.523,210.212 526.857,226.712 533.5,243.5 Z"/></g>
<g><path style="opacity:1" fill="#fd9d98" d="M 104.5,219.5 C 105.021,223.481 105.354,227.481 105.5,231.5C 108.572,231.183 111.572,231.516 114.5,232.5C 116.881,239.587 117.548,246.754 116.5,254C 109.253,254.812 102.086,254.646 95,253.5C 92.9975,246.317 91.8308,238.984 91.5,231.5C 94.5,231.5 97.5,231.5 100.5,231.5C 100.276,227.821 99.9422,224.154 99.5,220.5C 100.822,220.33 101.989,220.663 103,221.5C 103.278,220.584 103.778,219.918 104.5,219.5 Z"/></g>
<g><path style="opacity:1" fill="#f6f8f2" d="M 37.5,206.5 C 41.3935,206.11 45.0602,206.777 48.5,208.5C 52.6123,215.666 54.1123,223.333 53,231.5C 51.7948,236.945 50.2948,242.278 48.5,247.5C 47.5,247.5 46.5,247.5 45.5,247.5C 45.5,248.5 45.5,249.5 45.5,250.5C 42.8333,250.5 40.1667,250.5 37.5,250.5C 34.8878,249.723 33.0545,248.056 32,245.5C 28.395,236.363 27.7283,227.03 30,217.5C 31.1541,212.781 33.6541,209.114 37.5,206.5 Z"/></g>
<g><path style="opacity:1" fill="#75414b" d="M 386.5,151.5 C 387.167,151.5 387.833,151.5 388.5,151.5C 388.5,159.5 388.5,167.5 388.5,175.5C 387.869,182.698 385.703,189.364 382,195.5C 373.041,209.917 364.208,224.417 355.5,239C 352.382,240.893 349.049,242.226 345.5,243C 334.757,243.808 324.09,243.642 313.5,242.5C 312.612,239.946 312.279,237.279 312.5,234.5C 314.06,236.156 315.06,238.156 315.5,240.5C 325.658,241.659 335.992,241.825 346.5,241C 349.698,240.152 352.531,238.652 355,236.5C 361.429,225.301 368.095,214.301 375,203.5C 379.827,195.688 383.494,187.354 386,178.5C 386.5,169.506 386.666,160.506 386.5,151.5 Z"/></g>
<g><path style="opacity:1" fill="#fc9b95" d="M 115.5,201.5 C 117.144,201.286 118.644,201.62 120,202.5C 122.371,218.638 124.538,234.804 126.5,251C 126.257,254.003 124.59,255.17 121.5,254.5C 119.38,236.847 117.38,219.18 115.5,201.5 Z"/></g>
<g><path style="opacity:1" fill="#e7f0ec" d="M 183.5,201.5 C 186.858,203.7 189.358,206.7 191,210.5C 196.317,226.366 193.817,240.033 183.5,251.5C 173.295,251.806 167.462,246.806 166,236.5C 163.548,225.6 165.381,215.6 171.5,206.5C 174.513,202.665 178.513,200.999 183.5,201.5 Z"/></g>
<g><path style="opacity:1" fill="#f7faf3" d="M 171.5,206.5 C 174.546,204.541 177.879,203.707 181.5,204C 181.167,204.333 180.833,204.667 180.5,205C 186.043,206.215 189.21,209.715 190,215.5C 191.066,223.994 190.399,232.328 188,240.5C 186.402,246.373 182.569,248.706 176.5,247.5C 176.813,244.753 176.48,242.086 175.5,239.5C 174.264,240.246 172.93,240.579 171.5,240.5C 171.145,237.933 170.479,235.433 169.5,233C 170.424,231.189 171.257,231.355 172,233.5C 172.496,228.012 173.996,222.845 176.5,218C 174.686,215.519 174.02,212.685 174.5,209.5C 173.5,209.5 172.5,209.5 171.5,209.5C 171.5,208.5 171.5,207.5 171.5,206.5 Z"/></g>
<g><path style="opacity:1" fill="#fc9c96" d="M 133.5,201.5 C 135.144,201.286 136.644,201.62 138,202.5C 139.933,218.867 142.1,235.2 144.5,251.5C 143.976,254.396 142.476,255.063 140,253.5C 137.013,236.273 134.847,218.94 133.5,201.5 Z"/></g>
<g><path style="opacity:1" fill="#37414b" d="M 575.5,241.5 C 578.394,241.042 580.894,241.709 583,243.5C 583.594,249.856 583.427,256.189 582.5,262.5C 576.536,263.307 570.536,263.64 564.5,263.5C 559.5,263.5 554.5,263.5 549.5,263.5C 547.533,263.739 545.699,263.406 544,262.5C 540.008,256.354 537.508,249.687 536.5,242.5C 549.47,241.577 562.47,241.244 575.5,241.5 Z"/></g>
<g><path style="opacity:1" fill="#5c6b89" d="M 214.5,252.5 C 214.5,253.5 214.5,254.5 214.5,255.5C 217.68,255.176 218.847,256.51 218,259.5C 215.505,265.658 211.838,270.991 207,275.5C 206.725,295.091 213.225,311.924 226.5,326C 232.863,330.177 239.863,332.01 247.5,331.5C 241.309,332.726 234.976,332.726 228.5,331.5C 213.945,330.926 203.278,324.259 196.5,311.5C 191.588,301.464 188.755,290.797 188,279.5C 187.634,277.548 186.801,275.882 185.5,274.5C 184.593,268.894 184.26,263.227 184.5,257.5C 185.267,256.828 185.934,255.995 186.5,255C 190.821,254.501 195.154,254.334 199.5,254.5C 204.807,255.026 209.807,254.36 214.5,252.5 Z"/></g>
<g><path style="opacity:1" fill="#fc6250" d="M 533.5,243.5 C 534.167,253.167 534.833,262.833 535.5,272.5C 535.158,273.338 534.492,273.672 533.5,273.5C 533.5,263.5 533.5,253.5 533.5,243.5 Z"/></g>
<g><path style="opacity:1" fill="#3a434c" d="M 20.5,255.5 C 21.675,255.281 22.675,255.614 23.5,256.5C 18.5692,261.984 18.2358,267.817 22.5,274C 26.4862,274.499 30.4862,274.666 34.5,274.5C 31.3157,276.414 27.649,277.08 23.5,276.5C 22.1779,276.67 21.0113,276.337 20,275.5C 17.6831,269.705 17.0165,263.705 18,257.5C 18.7083,256.619 19.5416,255.953 20.5,255.5 Z"/></g>
<g><path style="opacity:1" fill="#aaa9aa" d="M 20.5,255.5 C 21.5676,254.566 22.901,254.232 24.5,254.5C 24.5,255.5 24.5,256.5 24.5,257.5C 36.5,257.5 48.5,257.5 60.5,257.5C 92.5,257.5 124.5,257.5 156.5,257.5C 157.5,257.5 158.5,257.5 159.5,257.5C 167.833,257.5 176.167,257.5 184.5,257.5C 184.26,263.227 184.593,268.894 185.5,274.5C 165.167,274.5 144.833,274.5 124.5,274.5C 105.5,273.167 86.5,273.167 67.5,274.5C 67.1667,274.5 66.8333,274.5 66.5,274.5C 62.5,274.5 58.5,274.5 54.5,274.5C 47.8333,274.5 41.1667,274.5 34.5,274.5C 30.4862,274.666 26.4862,274.499 22.5,274C 18.2358,267.817 18.5692,261.984 23.5,256.5C 22.675,255.614 21.675,255.281 20.5,255.5 Z"/></g>
<g><path style="opacity:1" fill="#080808" d="M 142.5,260.5 C 142.5,263.833 142.5,267.167 142.5,270.5C 140.5,270.5 138.5,270.5 136.5,270.5C 136.5,267.167 136.5,263.833 136.5,260.5C 138.5,260.5 140.5,260.5 142.5,260.5 Z"/></g>
<g><path style="opacity:1" fill="#050505" d="M 67.5,260.5 C 69.5,260.5 71.5,260.5 73.5,260.5C 73.5,263.833 73.5,267.167 73.5,270.5C 71.5,270.5 69.5,270.5 67.5,270.5C 67.5,267.167 67.5,263.833 67.5,260.5 Z"/></g>
<g><path style="opacity:1" fill="#ab4337" d="M 549.5,263.5 C 554.5,263.5 559.5,263.5 564.5,263.5C 563.07,264.537 561.403,265.204 559.5,265.5C 556.167,264.833 552.833,264.167 549.5,263.5 Z"/></g>
<g><path style="opacity:1" fill="#4d4c4d" d="M 142.5,260.5 C 143.482,263.962 143.815,267.629 143.5,271.5C 140.941,271.802 138.607,271.468 136.5,270.5C 138.5,270.5 140.5,270.5 142.5,270.5C 142.5,267.167 142.5,263.833 142.5,260.5 Z"/></g>
<g><path style="opacity:1" fill="#5d5d5d" d="M 67.5,260.5 C 67.5,263.833 67.5,267.167 67.5,270.5C 69.5,270.5 71.5,270.5 73.5,270.5C 71.3926,271.468 69.0593,271.802 66.5,271.5C 66.185,267.629 66.5184,263.962 67.5,260.5 Z"/></g>
<g><path style="opacity:1" fill="#fb3306" d="M 460.5,152.5 C 488.145,153.255 515.812,153.921 543.5,154.5C 544.248,156.332 545.248,157.999 546.5,159.5C 549.142,165.108 552.475,170.108 556.5,174.5C 561.634,182.953 566.3,191.62 570.5,200.5C 571.976,202.769 573.476,205.102 575,207.5C 575.5,218.828 575.667,230.162 575.5,241.5C 562.47,241.244 549.47,241.577 536.5,242.5C 537.508,249.687 540.008,256.354 544,262.5C 545.699,263.406 547.533,263.739 549.5,263.5C 552.833,264.167 556.167,264.833 559.5,265.5C 551.617,268.239 543.617,270.572 535.5,272.5C 534.833,262.833 534.167,253.167 533.5,243.5C 526.857,226.712 519.523,210.212 511.5,194C 494.5,193.333 477.5,193.333 460.5,194C 453.501,209.837 446.334,225.67 439,241.5C 438.212,252.546 438.378,263.546 439.5,274.5C 435.5,274.5 431.5,274.5 427.5,274.5C 405.833,274.5 384.167,274.5 362.5,274.5C 358.5,274.5 354.5,274.5 350.5,274.5C 350.167,274.5 349.833,274.5 349.5,274.5C 337.167,274.5 324.833,274.5 312.5,274.5C 312.172,263.654 312.506,252.987 313.5,242.5C 324.09,243.642 334.757,243.808 345.5,243C 349.049,242.226 352.382,240.893 355.5,239C 364.208,224.417 373.041,209.917 382,195.5C 385.703,189.364 387.869,182.698 388.5,175.5C 389.167,173.833 389.833,172.167 390.5,170.5C 390.5,187.5 390.5,204.5 390.5,221.5C 389.167,225.833 389.167,230.167 390.5,234.5C 389.876,238.013 390.876,240.847 393.5,243C 402.5,243.667 411.5,243.667 420.5,243C 421.737,242.768 422.737,242.268 423.5,241.5C 426.617,241.358 429.117,240.024 431,237.5C 441.501,220.164 450.668,202.164 458.5,183.5C 459.434,182.432 459.768,181.099 459.5,179.5C 460.471,170.584 460.804,161.584 460.5,152.5 Z"/></g>
<g><path style="opacity:1" fill="#fda09e" d="M 427.5,262.5 C 428.451,263.919 428.784,265.585 428.5,267.5C 392.5,267.5 356.5,267.5 320.5,267.5C 320.5,266.167 320.5,264.833 320.5,263.5C 356.094,262.507 391.76,262.174 427.5,262.5 Z"/></g>
<g><path style="opacity:1" fill="#fe7462" d="M 427.5,262.5 C 391.76,262.174 356.094,262.507 320.5,263.5C 337.987,262.167 355.821,261.5 374,261.5C 392.003,261.5 409.836,261.833 427.5,262.5 Z"/></g>
<g><path style="opacity:1" fill="#fd9992" d="M 320.5,250.5 C 356.168,250.333 391.835,250.5 427.5,251C 428.406,252.699 428.739,254.533 428.5,256.5C 392.5,256.5 356.5,256.5 320.5,256.5C 320.5,254.5 320.5,252.5 320.5,250.5 Z"/></g>
<g><path style="opacity:1" fill="#824048" d="M 390.5,234.5 C 391.5,234.5 392.5,234.5 393.5,234.5C 393.5,236.833 393.5,239.167 393.5,241.5C 403.5,241.5 413.5,241.5 423.5,241.5C 422.737,242.268 421.737,242.768 420.5,243C 411.5,243.667 402.5,243.667 393.5,243C 390.876,240.847 389.876,238.013 390.5,234.5 Z"/></g>
<g><path style="opacity:1" fill="#72414b" d="M 458.5,183.5 C 450.668,202.164 441.501,220.164 431,237.5C 429.117,240.024 426.617,241.358 423.5,241.5C 425.771,239.734 427.937,237.734 430,235.5C 435.746,224.34 441.746,213.34 448,202.5C 451.134,196.248 453.968,189.915 456.5,183.5C 457.268,182.737 457.768,181.737 458,180.5C 458.483,181.448 458.649,182.448 458.5,183.5 Z"/></g>
<g><path style="opacity:1" fill="#fc9d97" d="M 390.5,221.5 C 391.5,221.5 392.5,221.5 393.5,221.5C 394.8,223.223 395.467,225.39 395.5,228C 395.467,230.61 394.8,232.777 393.5,234.5C 392.5,234.5 391.5,234.5 390.5,234.5C 389.167,230.167 389.167,225.833 390.5,221.5 Z"/></g>
<g><path style="opacity:1" fill="#fc9b95" d="M 522.5,158.5 C 505.5,158.5 488.5,158.5 471.5,158.5C 471.5,159.5 471.5,160.5 471.5,161.5C 473.322,161.831 474.989,162.498 476.5,163.5C 475.393,168.081 475.227,172.748 476,177.5C 476.163,179.676 476.996,181.509 478.5,183C 494.139,184.069 509.806,184.902 525.5,185.5C 531.582,196 537.916,206.334 544.5,216.5C 551.223,219.15 558.223,220.15 565.5,219.5C 564.651,212.451 562.484,205.785 559,199.5C 554.239,190.307 549.239,181.307 544,172.5C 542.285,170.241 540.452,168.074 538.5,166C 534.653,165.367 530.986,164.533 527.5,163.5C 528.873,163.657 530.207,163.49 531.5,163C 528.833,162.333 528.833,161.667 531.5,161C 530.833,160.667 530.167,160.333 529.5,160C 529.728,159.601 530.062,159.435 530.5,159.5C 533.271,159.421 535.937,159.921 538.5,161C 550.642,178.104 561.142,196.27 570,215.5C 570.494,217.134 570.66,218.801 570.5,220.5C 560.161,220.666 549.828,220.5 539.5,220C 535.388,218.221 532.222,215.388 530,211.5C 525.247,203.662 520.747,195.662 516.5,187.5C 500.495,186.416 484.495,185.25 468.5,184C 467.376,183.751 466.376,183.251 465.5,182.5C 463.498,175.645 462.998,168.645 464,161.5C 464.465,160.069 465.299,158.903 466.5,158C 485.338,157.171 504.005,157.338 522.5,158.5 Z"/></g>
<g><path style="opacity:1" fill="#fd9995" d="M 399.5,208.5 C 411.5,208.5 423.5,208.5 435.5,208.5C 435.739,210.467 435.406,212.301 434.5,214C 422.838,214.5 411.171,214.667 399.5,214.5C 399.5,212.5 399.5,210.5 399.5,208.5 Z"/></g>
<g><path style="opacity:1" fill="#fc9c96" d="M 398.5,172.5 C 406.167,172.5 413.833,172.5 421.5,172.5C 421.5,174.5 421.5,176.5 421.5,178.5C 413.833,178.5 406.167,178.5 398.5,178.5C 398.5,176.5 398.5,174.5 398.5,172.5 Z"/></g>
<g><path style="opacity:1" fill="#fd3304" d="M 476.5,163.5 C 493.5,163.5 510.5,163.5 527.5,163.5C 530.986,164.533 534.653,165.367 538.5,166C 540.452,168.074 542.285,170.241 544,172.5C 549.239,181.307 554.239,190.307 559,199.5C 562.484,205.785 564.651,212.451 565.5,219.5C 558.223,220.15 551.223,219.15 544.5,216.5C 537.916,206.334 531.582,196 525.5,185.5C 509.806,184.902 494.139,184.069 478.5,183C 476.996,181.509 476.163,179.676 476,177.5C 475.227,172.748 475.393,168.081 476.5,163.5 Z"/></g>
<g><path style="opacity:1" fill="#d59369" d="M 522.5,158.5 C 525.385,158.194 528.052,158.527 530.5,159.5C 530.062,159.435 529.728,159.601 529.5,160C 530.167,160.333 530.833,160.667 531.5,161C 528.833,161.667 528.833,162.333 531.5,163C 530.207,163.49 528.873,163.657 527.5,163.5C 510.5,163.5 493.5,163.5 476.5,163.5C 474.989,162.498 473.322,161.831 471.5,161.5C 471.5,160.5 471.5,159.5 471.5,158.5C 488.5,158.5 505.5,158.5 522.5,158.5 Z"/></g>
<g><path style="opacity:1" fill="#838c9c" d="M 67.5,274.5 C 86.5,273.167 105.5,273.167 124.5,274.5C 124.784,276.415 124.451,278.081 123.5,279.5C 123.5,277.833 123.5,276.167 123.5,274.5C 119.5,274.5 115.5,274.5 111.5,274.5C 111.733,282.468 109.4,289.468 104.5,295.5C 107.288,288.794 109.288,281.794 110.5,274.5C 96.1667,274.5 81.8333,274.5 67.5,274.5 Z"/></g>
<g><path style="opacity:1" fill="#fdfdfd" d="M 124.5,274.5 C 144.833,274.5 165.167,274.5 185.5,274.5C 186.801,275.882 187.634,277.548 188,279.5C 188.755,290.797 191.588,301.464 196.5,311.5C 168.774,310.847 141.274,311.514 114,313.5C 113.536,312.906 113.369,312.239 113.5,311.5C 118.993,301.534 122.326,290.867 123.5,279.5C 124.451,278.081 124.784,276.415 124.5,274.5 Z"/></g>
<g><path style="opacity:1" fill="#fdfdfd" d="M 362.5,274.5 C 384.167,274.5 405.833,274.5 427.5,274.5C 427.803,287.401 431.137,299.401 437.5,310.5C 437.631,311.239 437.464,311.906 437,312.5C 408.221,312.171 379.721,311.171 351.5,309.5C 357.767,298.697 361.434,287.03 362.5,274.5 Z"/></g>
<g><path style="opacity:1" fill="#5d6b89" d="M 34.5,274.5 C 41.1667,274.5 47.8333,274.5 54.5,274.5C 55.0289,289.539 59.5289,303.205 68,315.5C 74.4834,323.751 82.9834,327.418 93.5,326.5C 82.8556,327.678 72.189,326.844 61.5,324C 56.7823,321.313 52.449,318.146 48.5,314.5C 40.8001,303.403 36.4668,291.07 35.5,277.5C 31.2984,277.817 27.2984,277.483 23.5,276.5C 27.649,277.08 31.3157,276.414 34.5,274.5 Z"/></g>
<g><path style="opacity:1" fill="#5c6a89" d="M 427.5,274.5 C 431.5,274.5 435.5,274.5 439.5,274.5C 441.833,274.5 444.167,274.5 446.5,274.5C 446.849,293.407 453.516,309.574 466.5,323C 469.341,323.84 471.675,325.34 473.5,327.5C 464.171,327.749 455.504,325.582 447.5,321C 443.935,317.604 440.602,314.104 437.5,310.5C 431.137,299.401 427.803,287.401 427.5,274.5 Z"/></g>
<g><path style="opacity:1" fill="#5c6b89" d="M 283.5,269.5 C 285.757,273.046 289.09,274.713 293.5,274.5C 294.698,286.31 298.198,297.31 304,307.5C 308.449,313.452 313.615,318.452 319.5,322.5C 303.98,323.491 292.146,317.491 284,304.5C 281.376,298.762 278.876,293.095 276.5,287.5C 276.216,285.585 276.549,283.919 277.5,282.5C 279.764,283.219 282.097,283.552 284.5,283.5C 282.987,278.952 281.654,274.285 280.5,269.5C 281.5,269.5 282.5,269.5 283.5,269.5 Z"/></g>
<g><path style="opacity:1" fill="#36414c" d="M 54.5,274.5 C 58.5,274.5 62.5,274.5 66.5,274.5C 66.1243,279.273 67.1243,283.607 69.5,287.5C 73.8784,304.187 83.8784,309.354 99.5,303C 102.2,301.143 103.866,298.643 104.5,295.5C 109.4,289.468 111.733,282.468 111.5,274.5C 115.5,274.5 119.5,274.5 123.5,274.5C 123.5,276.167 123.5,277.833 123.5,279.5C 122.326,290.867 118.993,301.534 113.5,311.5C 110.037,315.464 106.37,319.298 102.5,323C 99.6907,324.741 96.6907,325.908 93.5,326.5C 82.9834,327.418 74.4834,323.751 68,315.5C 59.5289,303.205 55.0289,289.539 54.5,274.5 Z"/></g>
<g><path style="opacity:1" fill="#5c6b8a" d="M 66.5,274.5 C 66.8333,274.5 67.1667,274.5 67.5,274.5C 81.8333,274.5 96.1667,274.5 110.5,274.5C 109.288,281.794 107.288,288.794 104.5,295.5C 101.71,298.113 98.7095,300.613 95.5,303C 91.9279,304.405 88.2613,304.738 84.5,304C 81.2996,302.367 78.4663,300.2 76,297.5C 73.9703,293.991 71.8036,290.658 69.5,287.5C 67.1243,283.607 66.1243,279.273 66.5,274.5 Z"/></g>
<g><path style="opacity:1" fill="#36414b" d="M 293.5,274.5 C 297.5,274.5 301.5,274.5 305.5,274.5C 305.433,275.959 305.766,277.292 306.5,278.5C 308.288,286.909 312.288,294.076 318.5,300C 327.711,305.514 335.711,304.014 342.5,295.5C 347.128,289.245 349.794,282.245 350.5,274.5C 354.5,274.5 358.5,274.5 362.5,274.5C 361.434,287.03 357.767,298.697 351.5,309.5C 347.864,314.498 343.197,318.332 337.5,321C 331.577,322.304 325.577,322.804 319.5,322.5C 313.615,318.452 308.449,313.452 304,307.5C 298.198,297.31 294.698,286.31 293.5,274.5 Z"/></g>
<g><path style="opacity:1" fill="#7c8ba0" d="M 349.5,274.5 C 349.833,274.5 350.167,274.5 350.5,274.5C 349.794,282.245 347.128,289.245 342.5,295.5C 335.711,304.014 327.711,305.514 318.5,300C 312.288,294.076 308.288,286.909 306.5,278.5C 309.24,286.427 313.907,293.26 320.5,299C 331.77,302.782 339.937,299.282 345,288.5C 346.811,283.921 348.311,279.254 349.5,274.5 Z"/></g>
<g><path style="opacity:1" fill="#5c6b89" d="M 305.5,274.5 C 307.833,274.5 310.167,274.5 312.5,274.5C 324.833,274.5 337.167,274.5 349.5,274.5C 348.311,279.254 346.811,283.921 345,288.5C 339.937,299.282 331.77,302.782 320.5,299C 313.907,293.26 309.24,286.427 306.5,278.5C 305.766,277.292 305.433,275.959 305.5,274.5 Z"/></g>
<g><path style="opacity:1" fill="#37414b" d="M 277.5,282.5 C 276.549,283.919 276.216,285.585 276.5,287.5C 274.75,301.83 269.083,314.33 259.5,325C 256.067,327.711 252.4,329.877 248.5,331.5C 248.167,331.5 247.833,331.5 247.5,331.5C 239.863,332.01 232.863,330.177 226.5,326C 213.225,311.924 206.725,295.091 207,275.5C 211.838,270.991 215.505,265.658 218,259.5C 218.847,256.51 217.68,255.176 214.5,255.5C 214.5,254.5 214.5,253.5 214.5,252.5C 218.942,239.817 223.942,227.484 229.5,215.5C 235.4,213.877 241.4,213.377 247.5,214C 253.511,216.359 258.677,219.859 263,224.5C 275.015,241.892 279.848,261.225 277.5,282.5 Z"/></g>
<g><path style="opacity:1" fill="#dde8ea" d="M 237.5,233.5 C 244.854,232.783 251.02,235.117 256,240.5C 266.758,258.256 268.425,276.923 261,296.5C 256.113,309.005 247.28,313.505 234.5,310C 227.394,304.974 222.894,298.141 221,289.5C 216.18,272.89 218.18,257.223 227,242.5C 230.103,238.886 233.603,235.886 237.5,233.5 Z"/></g>
<g><path style="opacity:1" fill="#e6f7f2" d="M 251.5,250.5 C 255.721,254.6 259.221,259.267 262,264.5C 264.697,276.24 261.531,285.907 252.5,293.5C 247.631,298.169 242.298,298.669 236.5,295C 227.24,282.302 226.074,268.802 233,254.5C 235.018,252.65 236.851,250.65 238.5,248.5C 241.438,247.425 244.438,247.259 247.5,248C 248.471,249.481 249.804,250.315 251.5,250.5 Z"/></g>
<g><path style="opacity:1" fill="#b4c8cd" d="M 245.5,236.5 C 243.801,236.34 242.134,236.506 240.5,237C 245.719,240.29 249.385,244.79 251.5,250.5C 249.804,250.315 248.471,249.481 247.5,248C 244.438,247.259 241.438,247.425 238.5,248.5C 236.851,250.65 235.018,252.65 233,254.5C 226.074,268.802 227.24,282.302 236.5,295C 242.298,298.669 247.631,298.169 252.5,293.5C 249.645,300.023 245.312,305.356 239.5,309.5C 232.969,307.14 228.136,302.806 225,296.5C 219.451,281.622 219.118,266.622 224,251.5C 226.887,243.946 232.054,238.779 239.5,236C 241.712,235.211 243.712,235.378 245.5,236.5 Z"/></g>
<g><path style="opacity:1" fill="#8494a6" d="M 245.5,236.5 C 251.697,238.527 256.197,242.527 259,248.5C 266.571,266.133 265.904,283.467 257,300.5C 252.847,306.826 247.014,309.826 239.5,309.5C 245.312,305.356 249.645,300.023 252.5,293.5C 261.531,285.907 264.697,276.24 262,264.5C 259.221,259.267 255.721,254.6 251.5,250.5C 249.385,244.79 245.719,240.29 240.5,237C 242.134,236.506 243.801,236.34 245.5,236.5 Z"/></g>
<g><path style="opacity:1" fill="#37414b" d="M 471.5,209.5 C 485.312,208.318 496.478,213.318 505,224.5C 515.333,242.835 519.5,262.502 517.5,283.5C 516.503,283.47 515.836,283.97 515.5,285C 513.788,294.302 510.788,303.136 506.5,311.5C 501.917,318.952 495.584,324.285 487.5,327.5C 486.5,327.5 485.5,327.5 484.5,327.5C 480.833,327.5 477.167,327.5 473.5,327.5C 471.675,325.34 469.341,323.84 466.5,323C 453.516,309.574 446.849,293.407 446.5,274.5C 449.448,274.777 452.281,274.444 455,273.5C 455.333,263.167 455.667,252.833 456,242.5C 461.199,231.44 466.365,220.44 471.5,209.5 Z"/></g>
<g><path style="opacity:1" fill="#8494a7" d="M 478.5,232.5 C 485.099,232.215 490.599,234.549 495,239.5C 505.539,257.744 506.206,276.411 497,295.5C 493.316,302.592 487.483,305.925 479.5,305.5C 484.693,301.98 488.359,297.314 490.5,291.5C 503.255,277.285 503.589,262.952 491.5,248.5C 488.962,241.637 484.629,236.303 478.5,232.5 Z"/></g>
<g><path style="opacity:1" fill="#e8f9f4" d="M 491.5,248.5 C 503.589,262.952 503.255,277.285 490.5,291.5C 487.157,293.668 483.491,294.501 479.5,294C 476.679,292.178 474.179,290.011 472,287.5C 467.012,274.662 467.345,261.996 473,249.5C 478.832,243.234 484.999,242.901 491.5,248.5 Z"/></g>
<g><path style="opacity:1" fill="#b3c8cd" d="M 478.5,232.5 C 484.629,236.303 488.962,241.637 491.5,248.5C 484.999,242.901 478.832,243.234 473,249.5C 467.345,261.996 467.012,274.662 472,287.5C 474.179,290.011 476.679,292.178 479.5,294C 483.491,294.501 487.157,293.668 490.5,291.5C 488.359,297.314 484.693,301.98 479.5,305.5C 471.306,303.142 465.806,297.809 463,289.5C 462.273,286.136 461.44,282.803 460.5,279.5C 459.614,280.325 459.281,281.325 459.5,282.5C 458.566,281.432 458.232,280.099 458.5,278.5C 458.793,268.456 460.293,258.456 463,248.5C 465.682,240.652 470.849,235.319 478.5,232.5 Z"/></g>
<g><path style="opacity:1" fill="#dae5e8" d="M 459.5,282.5 C 459.281,281.325 459.614,280.325 460.5,279.5C 461.44,282.803 462.273,286.136 463,289.5C 465.806,297.809 471.306,303.142 479.5,305.5C 487.483,305.925 493.316,302.592 497,295.5C 506.206,276.411 505.539,257.744 495,239.5C 490.599,234.549 485.099,232.215 478.5,232.5C 470.849,235.319 465.682,240.652 463,248.5C 460.293,258.456 458.793,268.456 458.5,278.5C 456.088,265.058 458.255,252.391 465,240.5C 471.272,230.275 479.772,227.775 490.5,233C 500.853,242.546 505.519,254.379 504.5,268.5C 505.479,282.113 501.479,293.947 492.5,304C 481.249,311.317 472.082,309.15 465,297.5C 462.027,292.893 460.193,287.893 459.5,282.5 Z"/></g>
<g><path style="opacity:1" fill="#7e8da2" d="M 69.5,287.5 C 71.8036,290.658 73.9703,293.991 76,297.5C 78.4663,300.2 81.2996,302.367 84.5,304C 88.2613,304.738 91.9279,304.405 95.5,303C 98.7095,300.613 101.71,298.113 104.5,295.5C 103.866,298.643 102.2,301.143 99.5,303C 83.8784,309.354 73.8784,304.187 69.5,287.5 Z"/></g>
<g><path style="opacity:1" fill="#eaf0e5" d="M 113.5,311.5 C 113.369,312.239 113.536,312.906 114,313.5C 141.274,311.514 168.774,310.847 196.5,311.5C 203.278,324.259 213.945,330.926 228.5,331.5C 229.087,332.767 229.087,333.767 228.5,334.5C 221.682,332.681 214.848,332.347 208,333.5C 160.894,332.124 113.727,330.624 66.5,329C 53.539,327.385 40.539,326.218 27.5,325.5C 24.1883,324.562 20.855,323.729 17.5,323C 16.0267,322.29 15.3601,321.124 15.5,319.5C 26.3675,317.221 37.3675,315.554 48.5,314.5C 52.449,318.146 56.7823,321.313 61.5,324C 72.189,326.844 82.8556,327.678 93.5,326.5C 96.6907,325.908 99.6907,324.741 102.5,323C 106.37,319.298 110.037,315.464 113.5,311.5 Z"/></g>
<g><path style="opacity:1" fill="#eaefe5" d="M 276.5,287.5 C 278.876,293.095 281.376,298.762 284,304.5C 292.146,317.491 303.98,323.491 319.5,322.5C 325.577,322.804 331.577,322.304 337.5,321C 343.197,318.332 347.864,314.498 351.5,309.5C 379.721,311.171 408.221,312.171 437,312.5C 437.464,311.906 437.631,311.239 437.5,310.5C 440.602,314.104 443.935,317.604 447.5,321C 455.504,325.582 464.171,327.749 473.5,327.5C 477.167,327.5 480.833,327.5 484.5,327.5C 456.318,329.258 427.985,331.091 399.5,333C 353.167,333.667 306.833,333.667 260.5,333C 256.452,332.696 252.452,332.196 248.5,331.5C 252.4,329.877 256.067,327.711 259.5,325C 269.083,314.33 274.75,301.83 276.5,287.5 Z"/></g>
<g><path style="opacity:1" fill="#ebf0e5" d="M 487.5,327.5 C 495.584,324.285 501.917,318.952 506.5,311.5C 506.435,311.938 506.601,312.272 507,312.5C 508.593,310.715 510.093,310.548 511.5,312C 533.862,313.251 556.195,314.751 578.5,316.5C 578.5,317.5 578.5,318.5 578.5,319.5C 548.25,324.491 517.917,327.158 487.5,327.5 Z"/></g>
</svg>
